<svg xmlns="http://www.w3.org/2000/svg" viewBox="0 0 128 128" width="128" height="128">
  <defs>
    <linearGradient id="bgGrad" x1="0%" y1="0%" x2="100%" y2="100%">
      <stop offset="0%" style="stop-color:#10B981"/>
      <stop offset="100%" style="stop-color:#059669"/>
    </linearGradient>
    <linearGradient id="docGrad" x1="0%" y1="0%" x2="100%" y2="100%">
      <stop offset="0%" style="stop-color:#ffffff"/>
      <stop offset="100%" style="stop-color:#f0fdf4"/>
    </linearGradient>
  </defs>

  <!-- Background rounded square -->
  <rect width="128" height="128" rx="24" fill="url(#bgGrad)"/>

  <!-- Document with folded corner -->
  <rect x="28" y="22" width="52" height="68" rx="6" fill="url(#docGrad)"/>
  <path d="M80 22 L80 40 L62 40 Z" fill="#d1fae5"/>
  <path d="M62 40 L62 22 L80 22 Z" fill="#a7f3d0"/>

  <!-- Text lines on document -->
  <rect x="36" y="50" width="28" height="4" rx="2" fill="#6ee7b7"/>
  <rect x="36" y="60" width="36" height="4" rx="2" fill="#6ee7b7"/>
  <rect x="36" y="70" width="24" height="4" rx="2" fill="#6ee7b7"/>

  <!-- Globe icon -->
  <circle cx="86" cy="38" r="16" fill="none" stroke="white" stroke-width="2.5"/>
  <ellipse cx="86" cy="38" rx="6" ry="16" fill="none" stroke="white" stroke-width="1.5"/>
  <line x1="70" y1="38" x2="102" y2="38" stroke="white" stroke-width="1.5"/>
  <line x1="86" y1="22" x2="86" y2="54" stroke="white" stroke-width="1.5"/>
</svg>
