<svg xmlns="http://www.w3.org/2000/svg" viewBox="0 0 256 256" width="256" height="256">
  <defs>
    <linearGradient id="bgGrad" x1="0%" y1="0%" x2="100%" y2="100%">
      <stop offset="0%" style="stop-color:#10B981"/>
      <stop offset="100%" style="stop-color:#059669"/>
    </linearGradient>
    <linearGradient id="docGrad" x1="0%" y1="0%" x2="100%" y2="100%">
      <stop offset="0%" style="stop-color:#ffffff"/>
      <stop offset="100%" style="stop-color:#f0fdf4"/>
    </linearGradient>
  </defs>

  <!-- Background rounded square -->
  <rect width="256" height="256" rx="48" fill="url(#bgGrad)"/>

  <!-- Document with folded corner -->
  <rect x="56" y="44" width="104" height="136" rx="12" fill="url(#docGrad)"/>
  <path d="M160 44 L160 80 L124 80 Z" fill="#d1fae5"/>
  <path d="M124 80 L124 44 L160 44 Z" fill="#a7f3d0"/>

  <!-- Text lines on document -->
  <rect x="72" y="100" width="56" height="8" rx="4" fill="#6ee7b7"/>
  <rect x="72" y="120" width="72" height="8" rx="4" fill="#6ee7b7"/>
  <rect x="72" y="140" width="48" height="8" rx="4" fill="#6ee7b7"/>

  <!-- Globe icon -->
  <circle cx="172" cy="76" r="32" fill="none" stroke="white" stroke-width="5"/>
  <ellipse cx="172" cy="76" rx="12" ry="32" fill="none" stroke="white" stroke-width="3"/>
  <line x1="140" y1="76" x2="204" y2="76" stroke="white" stroke-width="3"/>
  <line x1="172" y1="44" x2="172" y2="108" stroke="white" stroke-width="3"/>
</svg>
